<svg width="48" height="48" viewBox="0 0 48 48" fill="none" xmlns="http://www.w3.org/2000/svg">
<g clip-path="url(#clip0)">
<path d="M42.5886 12.171H37.519V7.10143C37.519 6.20506 37.1629 5.34541 36.5291 4.71158C35.8953 4.07776 35.0356 3.72168 34.1393 3.72168H13.8608C12.9644 3.72168 12.1048 4.07776 11.4709 4.71158C10.8371 5.34541 10.481 6.20506 10.481 7.10143V12.171H5.41142C4.06687 12.171 2.77739 12.7052 1.82665 13.6559C0.875916 14.6066 0.341797 15.8961 0.341797 17.2407V40.8989C0.341797 41.7953 0.697876 42.6549 1.3317 43.2887C1.96553 43.9226 2.82518 44.2786 3.72154 44.2786H44.2785C45.1749 44.2786 46.0345 43.9226 46.6683 43.2887C47.3022 42.6549 47.6582 41.7953 47.6582 40.8989V17.2407C47.6582 15.8961 47.1241 14.6066 46.1734 13.6559C45.2227 12.7052 43.9332 12.171 42.5886 12.171ZM13.8608 7.10143H34.1393V12.171H13.8608V7.10143ZM44.2785 40.8989H3.72154V25.69H17.2405V34.1394H30.7595V25.69H44.2785V40.8989ZM20.6203 25.69H27.3798V30.7597H20.6203V25.69ZM3.72154 22.3103V17.2407C3.72154 16.7925 3.89958 16.3627 4.2165 16.0457C4.53341 15.7288 4.96323 15.5508 5.41142 15.5508H42.5886C43.0368 15.5508 43.4666 15.7288 43.7836 16.0457C44.1005 16.3627 44.2785 16.7925 44.2785 17.2407V22.3103H3.72154Z" fill="#0D5C63"/>
</g>
<defs>
<clipPath id="clip0">
<rect width="48" height="40.7089" fill="white" transform="translate(0 3.64551)"/>
</clipPath>
</defs>
</svg>
